# B. Braun Celsite® Epoxy Small 3D CAD Model
# Dimensions: 26.0 x 22.0 x 9.5 mm
# Septum: Ø 9.7 mm, Reservoir: 0.25 mL

g Celsite_Epoxy_Housing
v 0.0000 0.0000 0.0000
v 3.1947 11.2369 0.0000
v 2.5714 11.9322 0.0000
v 1.8008 12.4593 0.0000
v 0.9270 12.7882 0.0000
v 0.0000 12.9000 0.0000
v -0.9270 12.7882 0.0000
v -1.8008 12.4593 0.0000
v -2.5714 11.9322 0.0000
v -3.1947 11.2369 0.0000
v -10.6575 -5.7793 0.0000
v -10.9960 -6.4127 0.0000
v -11.1743 -7.1084 0.0000
v -11.1822 -7.8266 0.0000
v -11.0191 -8.5261 0.0000
v -10.6944 -9.1667 0.0000
v -10.2268 -9.7118 0.0000
v -9.6430 -10.1302 0.0000
v -8.9765 -10.3978 0.0000
v -3.4222 -10.2000 0.0000
v -1.2222 -10.8000 0.0000
v 0.0000 -10.8000 0.0000
v 1.2222 -10.8000 0.0000
v 3.4222 -10.2000 0.0000
v 8.9765 -10.3978 0.0000
v 9.6430 -10.1302 0.0000
v 10.2268 -9.7118 0.0000
v 10.6944 -9.1667 0.0000
v 11.0191 -8.5261 0.0000
v 11.1822 -7.8266 0.0000
v 11.1743 -7.1084 0.0000
v 10.9960 -6.4127 0.0000
v 10.6575 -5.7793 0.0000
v 3.0669 10.7875 4.5000
v 2.4686 11.4549 4.5000
v 1.7288 11.9610 4.5000
v 0.8899 12.2767 4.5000
v 0.0000 12.3840 4.5000
v -0.8899 12.2767 4.5000
v -1.7288 11.9610 4.5000
v -2.4686 11.4549 4.5000
v -3.0669 10.7875 4.5000
v -10.2312 -5.5481 4.5000
v -10.5562 -6.1562 4.5000
v -10.7274 -6.8241 4.5000
v -10.7349 -7.5135 4.5000
v -10.5783 -8.1850 4.5000
v -10.2666 -8.8000 4.5000
v -9.8177 -9.3234 4.5000
v -9.2572 -9.7250 4.5000
v -8.6174 -9.9819 4.5000
v -3.2853 -9.7920 4.5000
v -1.1733 -10.3680 4.5000
v 0.0000 -10.3680 4.5000
v 1.1733 -10.3680 4.5000
v 3.2853 -9.7920 4.5000
v 8.6174 -9.9819 4.5000
v 9.2572 -9.7250 4.5000
v 9.8177 -9.3234 4.5000
v 10.2666 -8.8000 4.5000
v 10.5783 -8.1850 4.5000
v 10.7349 -7.5135 4.5000
v 10.7274 -6.8241 4.5000
v 10.5562 -6.1562 4.5000
v 10.2312 -5.5481 4.5000
v 2.7155 9.5514 3.5000
v 2.1857 10.1423 3.5000
v 1.5307 10.5904 3.5000
v 0.7879 10.8700 3.5000
v 0.0000 10.9650 3.5000
v -0.7879 10.8700 3.5000
v -1.5307 10.5904 3.5000
v -2.1857 10.1423 3.5000
v -2.7155 9.5514 3.5000
v -9.0588 -4.9124 9.5000
v -9.3466 -5.4508 9.5000
v -9.4982 -6.0422 9.5000
v -9.5048 -6.6526 9.5000
v -9.3662 -7.2472 9.5000
v -9.0902 -7.7917 9.5000
v -8.6928 -8.2551 9.5000
v -8.1965 -8.6107 9.5000
v -7.6300 -8.8381 9.5000
v -2.9089 -8.6700 9.5000
v -1.0389 -9.1800 9.5000
v 0.0000 -9.1800 9.5000
v 1.0389 -9.1800 9.5000
v 2.9089 -8.6700 9.5000
v 7.6300 -8.8381 9.5000
v 8.1965 -8.6107 9.5000
v 8.6928 -8.2551 9.5000
v 9.0902 -7.7917 9.5000
v 9.3662 -7.2472 9.5000
v 9.5048 -6.6526 9.5000
v 9.4982 -6.0422 9.5000
v 9.3466 -5.4508 9.5000
v 9.0588 -4.9124 9.5000
v 0.0000 0.0000 9.5000
f 1 3 2
f 1 4 3
f 1 5 4
f 1 6 5
f 1 7 6
f 1 8 7
f 1 9 8
f 1 10 9
f 1 11 10
f 1 12 11
f 1 13 12
f 1 14 13
f 1 15 14
f 1 16 15
f 1 17 16
f 1 18 17
f 1 19 18
f 1 20 19
f 1 21 20
f 1 22 21
f 1 23 22
f 1 24 23
f 1 25 24
f 1 26 25
f 1 27 26
f 1 28 27
f 1 29 28
f 1 30 29
f 1 31 30
f 1 32 31
f 1 33 32
f 1 2 33
f 2 3 35
f 2 35 34
f 3 4 36
f 3 36 35
f 4 5 37
f 4 37 36
f 5 6 38
f 5 38 37
f 6 7 39
f 6 39 38
f 7 8 40
f 7 40 39
f 8 9 41
f 8 41 40
f 9 10 42
f 9 42 41
f 10 11 43
f 10 43 42
f 11 12 44
f 11 44 43
f 12 13 45
f 12 45 44
f 13 14 46
f 13 46 45
f 14 15 47
f 14 47 46
f 15 16 48
f 15 48 47
f 16 17 49
f 16 49 48
f 17 18 50
f 17 50 49
f 18 19 51
f 18 51 50
f 19 20 52
f 19 52 51
f 20 21 53
f 20 53 52
f 21 22 54
f 21 54 53
f 22 23 55
f 22 55 54
f 23 24 56
f 23 56 55
f 24 25 57
f 24 57 56
f 25 26 58
f 25 58 57
f 26 27 59
f 26 59 58
f 27 28 60
f 27 60 59
f 28 29 61
f 28 61 60
f 29 30 62
f 29 62 61
f 30 31 63
f 30 63 62
f 31 32 64
f 31 64 63
f 32 33 65
f 32 65 64
f 33 2 34
f 33 34 65
f 34 35 67
f 34 67 66
f 35 36 68
f 35 68 67
f 36 37 69
f 36 69 68
f 37 38 70
f 37 70 69
f 38 39 71
f 38 71 70
f 39 40 72
f 39 72 71
f 40 41 73
f 40 73 72
f 41 42 74
f 41 74 73
f 42 43 75
f 42 75 74
f 43 44 76
f 43 76 75
f 44 45 77
f 44 77 76
f 45 46 78
f 45 78 77
f 46 47 79
f 46 79 78
f 47 48 80
f 47 80 79
f 48 49 81
f 48 81 80
f 49 50 82
f 49 82 81
f 50 51 83
f 50 83 82
f 51 52 84
f 51 84 83
f 52 53 85
f 52 85 84
f 53 54 86
f 53 86 85
f 54 55 87
f 54 87 86
f 55 56 88
f 55 88 87
f 56 57 89
f 56 89 88
f 57 58 90
f 57 90 89
f 58 59 91
f 58 91 90
f 59 60 92
f 59 92 91
f 60 61 93
f 60 93 92
f 61 62 94
f 61 94 93
f 62 63 95
f 62 95 94
f 63 64 96
f 63 96 95
f 64 65 97
f 64 97 96
f 65 34 66
f 65 66 97
f 98 66 67
f 98 67 68
f 98 68 69
f 98 69 70
f 98 70 71
f 98 71 72
f 98 72 73
f 98 73 74
f 98 74 75
f 98 75 76
f 98 76 77
f 98 77 78
f 98 78 79
f 98 79 80
f 98 80 81
f 98 81 82
f 98 82 83
f 98 83 84
f 98 84 85
f 98 85 86
f 98 86 87
f 98 87 88
f 98 88 89
f 98 89 90
f 98 90 91
f 98 91 92
f 98 92 93
f 98 93 94
f 98 94 95
f 98 95 96
f 98 96 97
f 98 97 66
